<svg width="160" height="160" viewBox="0 0 160 160" fill="none" xmlns="http://www.w3.org/2000/svg">
<ellipse cx="80" cy="155.2" rx="80" ry="4.8" fill="#8CB3ED"/>
<path opacity="0.8" fill-rule="evenodd" clip-rule="evenodd" d="M118.773 20.2153C118.773 17.8873 120.661 16 122.989 16C125.317 16 127.204 17.8873 127.204 20.2153V28.8871C127.204 31.2151 125.317 33.1024 122.989 33.1024C120.661 33.1024 118.773 31.2151 118.773 28.8871V20.2153ZM122.989 19.2C122.428 19.2 121.973 19.6546 121.973 20.2153V28.8871C121.973 29.4478 122.428 29.9024 122.989 29.9024C123.55 29.9024 124.004 29.4478 124.004 28.8871V20.2153C124.004 19.6546 123.55 19.2 122.989 19.2ZM127.947 37.5919C127.947 35.2638 129.834 33.3766 132.162 33.3766H140.834C143.162 33.3766 145.049 35.2638 145.049 37.5919C145.049 39.92 143.162 41.8072 140.834 41.8072H132.162C129.834 41.8072 127.947 39.92 127.947 37.5919ZM132.162 36.5766C131.601 36.5766 131.147 37.0311 131.147 37.5919C131.147 38.1527 131.601 38.6072 132.162 38.6072H140.834C141.395 38.6072 141.849 38.1527 141.849 37.5919C141.849 37.0311 141.395 36.5766 140.834 36.5766H132.162Z" fill="#8CB3ED"/>
<path d="M73.668 106.227H39.3513C34.2763 106.227 30.168 102.119 30.168 97.0436V53.0603C30.168 47.9853 34.2763 43.877 39.3513 43.877H112.818C117.893 43.877 122.001 47.9853 122.001 53.0603V77.7103" stroke="#8CB3ED" stroke-width="4" stroke-linecap="round" stroke-linejoin="round"/>
<path d="M84.1971 67.9036C88.6776 72.3841 88.6776 79.6534 84.1971 84.1387C79.7166 88.6192 72.4473 88.6192 67.9619 84.1387C63.4814 79.6582 63.4814 72.3889 67.9619 67.9036C72.4473 63.4182 79.7166 63.4182 84.1971 67.9036" stroke="#8CB3ED" stroke-width="4" stroke-linecap="round" stroke-linejoin="round"/>
<path fill-rule="evenodd" clip-rule="evenodd" d="M107.5 130.543V130.543C97.0057 130.543 88.5 122.038 88.5 111.543V111.543C88.5 101.049 97.0057 92.5432 107.5 92.5432V92.5432C117.994 92.5432 126.5 101.049 126.5 111.543V111.543C126.5 122.038 117.994 130.543 107.5 130.543Z" stroke="#8CB3ED" stroke-width="4" stroke-linecap="round" stroke-linejoin="round"/>
<path d="M107.502 122.099V111.543H105.391" stroke="#8CB3ED" stroke-width="4" stroke-linecap="round" stroke-linejoin="round"/>
<path d="M106.971 103.099C106.68 103.099 106.444 103.335 106.446 103.627C106.446 103.918 106.682 104.154 106.974 104.154C107.265 104.154 107.501 103.918 107.501 103.627C107.501 103.335 107.265 103.099 106.971 103.099" stroke="#8CB3ED" stroke-width="4" stroke-linecap="round" stroke-linejoin="round"/>
<path d="M49.5013 92.2104H44.668" stroke="#8CB3ED" stroke-width="4" stroke-linecap="round" stroke-linejoin="round"/>
<path d="M107.501 58.3769H102.668" stroke="#8CB3ED" stroke-width="4" stroke-linecap="round" stroke-linejoin="round"/>
</svg>
