<svg width="160" height="160" viewBox="0 0 160 160" fill="none" xmlns="http://www.w3.org/2000/svg">
<ellipse cx="80" cy="155.2" rx="80" ry="4.8" fill="#8CB3ED"/>
<path fill-rule="evenodd" clip-rule="evenodd" d="M114.465 68.8176C114.465 64.3838 110.818 60.7895 106.319 60.7895H98.1723C97.1095 60.8337 96.1971 61.549 95.9145 62.5597C95.0843 65.9452 92.0096 68.3301 88.4753 68.3301C84.9409 68.33 81.8663 65.9449 81.0363 62.5594C80.7537 61.5489 79.8414 60.8337 78.7787 60.7895H41.1465C36.6473 60.7895 33 64.3838 33 68.8176V112.972C33 117.406 36.6473 121 41.1465 121H78.7787C79.8414 120.956 80.7536 120.241 81.0363 119.23C81.8663 115.845 84.9409 113.46 88.4753 113.46C92.0096 113.459 95.0843 115.844 95.9145 119.23C96.1971 120.241 97.1095 120.956 98.1723 121H106.319C110.818 121 114.465 117.406 114.465 112.972V68.8176Z" stroke="#8CB3ED" stroke-width="4" stroke-linecap="round" stroke-linejoin="round"/>
<path d="M87.9819 103.94V101.933" stroke="#8CB3ED" stroke-width="4" stroke-linecap="round" stroke-linejoin="round"/>
<path d="M87.9819 91.8983V89.8913" stroke="#8CB3ED" stroke-width="4" stroke-linecap="round" stroke-linejoin="round"/>
<path d="M87.9819 79.8562V77.8492" stroke="#8CB3ED" stroke-width="4" stroke-linecap="round" stroke-linejoin="round"/>
<path d="M114.468 79.3158H120.735C124.196 79.3158 127.002 76.551 127.002 73.1404V39.1754C127.002 35.7648 124.196 33 120.735 33H114.468C113.651 33.034 112.949 33.5842 112.732 34.3617C112.093 36.9659 109.728 38.8005 107.009 38.8004C104.291 38.8004 101.925 36.9657 101.287 34.3615C101.07 33.5841 100.368 33.034 99.5503 33H70.6025C67.1416 33 64.3359 35.7648 64.3359 39.1754V60.7895" stroke="#8CB3ED" stroke-width="4" stroke-linecap="round" stroke-linejoin="round"/>
</svg>
