<svg width="160" height="160" viewBox="0 0 160 160" fill="none" xmlns="http://www.w3.org/2000/svg">
<ellipse cx="80" cy="155.2" rx="80" ry="4.8" fill="#8CB3ED"/>
<path opacity="0.8" fill-rule="evenodd" clip-rule="evenodd" d="M118.773 30.2153C118.773 27.8873 120.661 26 122.989 26C125.317 26 127.204 27.8873 127.204 30.2153V38.8871C127.204 41.2151 125.317 43.1024 122.989 43.1024C120.661 43.1024 118.773 41.2151 118.773 38.8871V30.2153ZM122.989 29.2C122.428 29.2 121.973 29.6546 121.973 30.2153V38.8871C121.973 39.4478 122.428 39.9024 122.989 39.9024C123.55 39.9024 124.004 39.4478 124.004 38.8871V30.2153C124.004 29.6546 123.55 29.2 122.989 29.2ZM127.947 47.5919C127.947 45.2638 129.834 43.3766 132.162 43.3766H140.834C143.162 43.3766 145.049 45.2638 145.049 47.5919C145.049 49.92 143.162 51.8072 140.834 51.8072H132.162C129.834 51.8072 127.947 49.92 127.947 47.5919ZM132.162 46.5766C131.601 46.5766 131.147 47.0311 131.147 47.5919C131.147 48.1527 131.601 48.6072 132.162 48.6072H140.834C141.395 48.6072 141.849 48.1527 141.849 47.5919C141.849 47.0311 141.395 46.5766 140.834 46.5766H132.162Z" fill="#8CB3ED"/>
<path d="M111.43 100.397L123.518 112.486" stroke="#8CB3ED" stroke-width="4" stroke-linecap="round" stroke-linejoin="round"/>
<path d="M123.518 100.397L111.43 112.486" stroke="#8CB3ED" stroke-width="4" stroke-linecap="round" stroke-linejoin="round"/>
<path d="M82.4177 78.3239V63.4939" stroke="#8CB3ED" stroke-width="4" stroke-linecap="round" stroke-linejoin="round"/>
<path d="M82.4207 95.7747C82.2138 95.7747 82.0155 95.8575 81.8702 96.0047C81.7248 96.1519 81.6444 96.3512 81.647 96.5581C81.6496 96.9859 81.9929 97.3335 82.4207 97.3414C82.8533 97.3414 83.204 96.9907 83.204 96.5581C83.204 96.1254 82.8533 95.7747 82.4207 95.7747" stroke="#8CB3ED" stroke-width="4" stroke-linecap="round" stroke-linejoin="round"/>
<path d="M121.323 85.3401L98.4667 46.0868C95.1321 40.3854 89.0231 36.8812 82.4182 36.8812C75.8133 36.8812 69.7043 40.3854 66.3697 46.0868L38.8082 93.3668C35.72 98.6794 35.7146 105.239 38.7941 110.557C41.8736 115.875 47.5659 119.135 53.7107 119.101H97.0983" stroke="#8CB3ED" stroke-width="4" stroke-linecap="round" stroke-linejoin="round"/>
</svg>
