<svg width="160" height="24" viewBox="0 0 160 24" fill="none" xmlns="http://www.w3.org/2000/svg">
<g clip-path="url(#clip0_491_83489)">
<path d="M131.171 0.808105H138.177L160.001 23.0716H155.832C154.033 23.0891 152.885 22.5073 151.488 21.3187L145.374 15.176L137.724 23.1915H131.171L141.658 11.5803L131.171 0.808105Z" fill="#576BB8"/>
<path d="M150.407 9.51395L158.195 0.808105H151.898L149.674 3.14789C148.844 4.02121 148.42 5.22644 148.548 6.43819C148.675 7.63732 149.308 8.65767 150.407 9.51395H150.407Z" fill="#576BB8"/>
<path d="M26.794 1.23779V22.7309H18.2562V14.7784H8.5386V22.7309H0.000976562V1.23779H8.53881V8.63744H18.2564V1.23779H26.7942H26.794Z" fill="white"/>
<path d="M108.818 1.23828V22.7313H104.254L91.1837 5.7519V22.7313H87.334V1.23828H91.8979L104.999 18.2177V1.23828H108.818Z" fill="white"/>
<path d="M135.114 11.9844C135.114 19.4147 129.371 23.1915 122.602 23.1915C115.834 23.1915 110.06 19.4149 110.06 11.9844C110.06 4.55378 115.803 0.808105 122.602 0.808105C129.402 0.808105 135.114 4.55399 135.114 11.9844ZM131.171 11.9844C131.171 7.22527 128.098 3.97052 122.602 3.97052C117.107 3.97052 114.002 7.22527 114.002 11.9844C114.002 16.7434 117.076 20.0289 122.602 20.0289C128.129 20.0289 131.171 16.7741 131.171 11.9844Z" fill="white"/>
<path d="M52.6152 20.8784C50.2238 22.4208 46.8254 23.1915 42.4193 23.1915C38.0133 23.1915 34.6073 22.4206 32.2025 20.8784C29.7979 19.336 28.5957 17.0957 28.5957 14.1569V1.30762H37.502V14.0629C37.502 15.2717 37.9185 16.2354 38.7512 16.9546C39.5839 17.6737 40.7933 18.0334 42.3787 18.0334C43.9641 18.0334 45.1795 17.6689 46.0257 16.9392C46.872 16.2096 47.2954 15.2511 47.2954 14.0629V1.30762H56.2017V14.1567C56.2017 17.0955 55.0059 19.3358 52.6148 20.8782L52.6152 20.8784Z" fill="white"/>
<path d="M79.3661 1.97712C80.4791 2.42345 81.3621 3.05152 82.0148 3.8609C82.6673 4.67069 82.9942 5.57346 82.9942 6.56983C82.9942 9.2064 81.5225 10.8672 78.5794 11.5521V11.6768C81.9319 12.2996 83.6082 14.0847 83.6082 17.0326C83.6082 18.1537 83.269 19.145 82.591 20.0068C81.9125 20.8683 80.985 21.5378 79.8076 22.0153C78.6302 22.4927 77.3382 22.7313 75.9307 22.7313H58.1191V1.30762H75.7001C77.0307 1.30762 78.2525 1.53099 79.3661 1.97691V1.97712ZM66.6023 9.65294H72.4374C73.0002 9.65294 73.4672 9.49225 73.8383 9.17022C74.2095 8.8484 74.3951 8.44898 74.3951 7.97151V7.66C74.3951 7.20357 74.2031 6.81424 73.8194 6.49242C73.4353 6.17061 72.9749 6.0097 72.4374 6.0097H66.6023V9.65315V9.65294ZM66.6023 17.7488H73.0514C73.6142 17.7488 74.0812 17.5881 74.4523 17.2663C74.8235 16.9445 75.0091 16.5448 75.0091 16.0672V15.7559C75.0091 15.2784 74.8235 14.879 74.4523 14.5572C74.0812 14.2353 73.6142 14.0744 73.0514 14.0744H66.6023V17.7486V17.7488Z" fill="white"/>
</g>
<defs>
<clipPath id="clip0_491_83489">
<rect width="160" height="22.3834" fill="white" transform="translate(0 0.808105)"/>
</clipPath>
</defs>
</svg>
